<svg width="1440" height="100" viewBox="0 0 1440 100" fill="none" xmlns="http://www.w3.org/2000/svg">
<g clip-path="url(#clip0)">
<path d="M5 8.5L0 0H1440C1437 2.16667 1430.6 6.7 1429 7.5L1425 9.5C1423.5 10.5 1419.4 13.3 1415 16.5C1409.5 20.5 1409.5 19 1405.5 22C1402.3 24.4 1394.83 27.6667 1391.5 29C1387.17 31 1377.9 35.5 1375.5 37.5C1372.5 40 1361 48 1356.5 48C1352 48 1325 49 1310.5 48C1296.5 47.0346 1266.19 40.943 1261.86 40.0729L1261.5 40C1259.5 39.6 1229.33 30.5 1214.5 26L1185.5 19C1181.33 18.8333 1172 18.6 1168 19C1163 19.5 1161.5 21.5 1158 21.5C1154.5 21.5 1152 27 1149 29.5C1146.6 31.5 1134.33 35.3333 1128.5 37L1076.5 29.5C1059.83 26.8333 1025.2 21.5 1020 21.5C1014.8 21.5 1002.83 23.5 997.5 24.5C991.167 28.6667 977.5 37 973.5 37H959C942 31.8333 907.1 21.5 903.5 21.5C899 21.5 871 18.5 869 18.5C867.4 18.5 855.333 20.5 849.5 21.5C842.833 24.1667 828.9 30.1 826.5 32.5C823.5 35.5 797.5 43.5 793.5 46.5C789.5 49.5 758 52.5 752.5 56C747 59.5 718.5 56.5 709 58C699.5 59.5 673 53 671 52.5C669 52 628 38 625 37.5C622.6 37.1 604 30 595 26.5L573 17H543C541 17 536.5 19.3333 534.5 20.5C533 20.5 528.9 21 524.5 23C519 25.5 517.5 23 513 23C508.5 23 503.5 27.5 499.5 28.5C496.3 29.3 492.5 31.5 491 32.5C489.667 32.5 483.4 34 469 40C451 47.5 461 40 455.5 42.5C450 45 447.5 44 442 46.5C436.5 49 434.5 46.5 431 46.5C427.5 46.5 425.5 48.5 420.5 46.5C415.5 44.5 410.5 48 400.5 46.5C390.5 45 378.5 40.5 377 40C375.8 39.6 363.833 34.8333 358 32.5C351.5 29.3333 338 23 336 23C334 23 328.5 21.3333 326 20.5C323.333 19.3333 317.6 17 316 17C314 17 307.5 13 305.5 13H297.5L280 17C275 18.1667 263.9 20.5 259.5 20.5C254 20.5 245 20.5 240 23C236 25 227.333 26.5 223.5 27C219.833 27 210 28.2 200 33C187.5 39 188 35.5 183 35.5C178 35.5 162.5 35.5 155 37.5C147.5 39.5 138.5 39.5 135 39.5C131.5 39.5 120.5 40 115 39.5C109.5 39 96.5 35.5 94.5 35.5H85C81.6667 35.1667 73.7 34.2 68.5 33C63.3 31.8 57 28.5 54.5 27C45.1667 24.8333 26.3 20.5 25.5 20.5C24.5 20.5 19 17.5 18 17L13 14.5C12.2 14.1 10 12.3333 9 11.5L5 8.5Z" fill="#1A1D24" stroke="#1A1D24"/>
</g>
<defs>
<clipPath id="clip0">
<rect width="1440" height="100" fill="white"/>
</clipPath>
</defs>
</svg>
