<svg width="200" height="200" viewBox="0 0 200 200" fill="none" xmlns="http://www.w3.org/2000/svg">
<rect width="200" height="200" fill="#8277FF"/>
<path d="M155.401 36.48C158.377 37.056 160.585 38.064 162.025 39.504C163.561 40.944 164.329 42.624 164.329 44.544C164.329 47.712 163.417 50.016 161.593 51.456C159.865 52.896 157.081 53.472 153.241 53.184C144.601 52.512 137.833 52.08 132.937 51.888C128.137 51.6 121.801 51.408 113.929 51.312C110.377 68.976 107.113 86.736 104.137 104.592C103.081 111.12 101.977 118.704 100.825 127.344C99.6729 135.888 98.9049 142.8 98.5209 148.08C98.3289 150.864 97.1769 153.024 95.0649 154.56C92.9529 156 90.4089 156.72 87.4329 156.72C84.2649 156.72 81.8169 155.952 80.0889 154.416C78.3609 152.88 77.4969 150.864 77.4969 148.368C77.4969 146.064 77.8329 142.272 78.5049 136.992C79.2729 131.616 80.1369 126 81.0969 120.144C82.1529 114.288 82.9689 109.2 83.5449 104.88C84.6009 97.584 85.8009 90.336 87.1449 83.136C88.4889 75.936 89.8329 69.12 91.1769 62.688C91.4649 61.248 91.8009 59.616 92.1849 57.792C92.5689 55.872 93.0009 53.76 93.4809 51.456C84.0729 51.744 76.6809 52.512 71.3049 53.76C65.9289 55.008 62.0889 56.784 59.7849 59.088C57.5769 61.296 56.4729 64.176 56.4729 67.728C56.4729 70.992 57.4329 74.112 59.3529 77.088C59.7369 77.76 59.9289 78.48 59.9289 79.248C59.9289 81.072 58.8249 82.8 56.6169 84.432C54.5049 85.968 52.2969 86.736 49.9929 86.736C48.3609 86.736 47.0169 86.256 45.9609 85.296C44.0409 83.664 42.4569 81.36 41.2089 78.384C39.9609 75.312 39.3369 71.856 39.3369 68.016C39.3369 59.856 41.9769 53.328 47.2569 48.432C52.6329 43.44 60.7449 39.792 71.5929 37.488C82.5369 35.184 96.5529 34.032 113.641 34.032C124.201 34.032 132.601 34.224 138.841 34.608C145.177 34.992 150.697 35.616 155.401 36.48Z" fill="white"/>
</svg>
