<svg width="1130" height="786" viewBox="0 0 1130 786" fill="none" xmlns="http://www.w3.org/2000/svg">
<rect x="89" y="244" width="656" height="424" rx="32" fill="#C9C9C9"/>
<path d="M377.5 658L370.5 668.5H476.5L470 658H377.5Z" fill="black" stroke="black"/>
<rect x="115" y="267" width="613" height="378" rx="28" fill="#242834"/>
<rect x="107" y="269" width="621" height="377" rx="28" fill="#242834"/>
<path d="M321 272L325 279" stroke="#FF0505"/>
<path d="M370 273L374 280" stroke="#FF0505"/>
<path d="M273 273L277 280" stroke="#FF0505"/>
<path d="M326 272L321 279" stroke="#FF0505"/>
<path d="M374 273L370 280" stroke="#FF0505"/>
<path d="M277 273L273 280" stroke="#FF0505"/>
<path d="M284 278V273H317V278H284Z" fill="#7B8156"/>
<path d="M232 279V274H264V279H232Z" fill="#7B8156"/>
<path d="M333 278V273H366V278H333Z" fill="#7B8156"/>
<path d="M280 267V284H328.151M328.151 284V267H377V284H328.151Z" stroke="#F06AE3"/>
<path d="M280 267H328" stroke="#F06AE3"/>
<path d="M225.227 267.223L224.53 646.26" stroke="#B7AC4B"/>
<path d="M200 305H125V317H200V305Z" fill="#3C4153"/>
<path d="M199 339H125V351H199V339Z" fill="#3C4153"/>
<path d="M697 339H254V351H475.5H697V339Z" fill="#3C4153"/>
<path d="M697 368H254V379H475.5H697V368Z" fill="#3C4153"/>
<path d="M697 396H254V407H475.5H697V396Z" fill="#3C4153"/>
<path d="M697 491H254V503H475.5H697V491Z" fill="#3C4153"/>
<path d="M697 519H254V531H475.5H697V519Z" fill="#3C4153"/>
<path d="M866 473H793V485H829.5H866V473Z" fill="#3C4153"/>
<path d="M554 424H254V436H404H554V424Z" fill="#3C4153"/>
<path d="M199 373H125V385H199V373Z" fill="#3C4153"/>
<path d="M83 701L102.926 668H730.584L753 701H83Z" fill="#C9C9C9"/>
<rect x="492.5" y="98.5" width="485" height="308" fill="white" stroke="black"/>
<rect x="492.5" y="99.5" width="485" height="308" fill="#6366F1" stroke="black"/>
<path d="M946.5 165H526.5V176H946.5V165Z" fill="#E5E5E5" fill-opacity="0.5"/>
<path d="M945 183H525V194H945V183Z" fill="#E5E5E5" fill-opacity="0.5"/>
<path d="M745 201H526V212H745V201Z" fill="#E5E5E5" fill-opacity="0.5"/>
<path d="M859 473H793V484H859V473Z" fill="#E5E5E5" fill-opacity="0.5"/>
<path d="M949 268H529V279H949V268Z" fill="#E5E5E5" fill-opacity="0.5"/>
<path d="M949 286H529V297H949V286Z" fill="#E5E5E5" fill-opacity="0.5"/>
<path d="M803 306H529V317H803V306Z" fill="#E5E5E5" fill-opacity="0.5"/>
<path d="M949 363H529V374H949V363Z" fill="#E5E5E5" fill-opacity="0.5"/>
<path d="M949 347H529V358H949V347Z" fill="#E5E5E5" fill-opacity="0.5"/>
<line x1="492.002" y1="118.5" x2="978.002" y2="120.5" stroke="black"/>
<circle cx="506" cy="109" r="5" fill="#E63E3E"/>
<circle cx="524" cy="109" r="5" fill="#F1F43A"/>
<circle cx="542" cy="109" r="5" fill="#29E469"/>
<path d="M785 635V464C785 459.582 788.582 456 793 456H861C865.418 456 869 459.582 869 464V635C869 639.418 865.418 643 861 643H793C788.582 643 785 639.418 785 635Z" fill="#6366F1" stroke="black" stroke-width="2"/>
<path d="M869.5 627H785V637L791.5 643L865.5 641.5L868.5 637L869.5 627Z" fill="black" stroke="black"/>
<path d="M785 462L790.03 457H864.479L868 462H785Z" fill="black" stroke="black"/>
<path d="M794 482V474.5H861V482H794Z" fill="#E5E5E5" fill-opacity="0.5"/>
<path d="M794 512V504H818V512H794Z" fill="#E5E5E5" fill-opacity="0.5"/>
<path d="M794 551.5V544H861V551.5H794Z" fill="#E5E5E5" fill-opacity="0.5"/>
<path d="M794 568V560H837V568H794Z" fill="#E5E5E5" fill-opacity="0.5"/>
<path d="M794 496.5V489H861V496.5H794Z" fill="#E5E5E5" fill-opacity="0.5"/>
</svg>
