<svg width="100" height="35" viewBox="0 0 100 35" fill="none" xmlns="http://www.w3.org/2000/svg">
<path d="M41.6902 6.732V8.448L40.9342 8.544C40.8302 8.464 40.7302 8.296 40.6342 8.04H39.1942V13.608C39.5142 13.736 39.7342 13.868 39.8542 14.004L39.7342 15H36.9262L36.8062 14.004C36.9102 13.868 37.1302 13.736 37.4662 13.608V8.04H36.0262C35.9302 8.296 35.8302 8.464 35.7262 8.544L34.9702 8.448V6.732H41.6902ZM42.2648 9.888C42.2648 9.768 42.2688 9.64 42.2768 9.504C43.0208 9.104 43.8208 8.904 44.6768 8.904C45.5328 8.904 46.1448 9.068 46.5128 9.396C46.8888 9.716 47.0768 10.252 47.0768 11.004V13.56C47.3568 13.616 47.5768 13.684 47.7368 13.764V14.808C47.3288 15 46.7448 15.096 45.9848 15.096C45.9048 14.888 45.8368 14.636 45.7808 14.34C45.4368 14.844 44.8128 15.096 43.9088 15.096C43.3728 15.096 42.9128 14.94 42.5288 14.628C42.1528 14.316 41.9648 13.892 41.9648 13.356C41.9648 12.82 42.1408 12.4 42.4928 12.096C42.8528 11.784 43.3848 11.628 44.0888 11.628H45.3968V11.052C45.3968 10.428 45.0648 10.116 44.4008 10.116C44.1528 10.116 43.9488 10.14 43.7888 10.188C43.7728 10.524 43.7248 10.784 43.6448 10.968H42.4688C42.3328 10.688 42.2648 10.328 42.2648 9.888ZM44.4248 13.872C44.8328 13.872 45.1568 13.752 45.3968 13.512V12.528H44.5568C43.9808 12.528 43.6928 12.748 43.6928 13.188C43.6928 13.388 43.7528 13.552 43.8728 13.68C44.0008 13.808 44.1848 13.872 44.4248 13.872ZM48.9214 6.48C49.3694 6.376 49.7854 6.324 50.1694 6.324C50.5534 6.324 50.8774 6.336 51.1414 6.36V9.36C51.3334 9.232 51.5894 9.124 51.9094 9.036C52.2294 8.948 52.5134 8.904 52.7614 8.904C53.5534 8.904 54.1014 9.096 54.4054 9.48C54.7094 9.864 54.8614 10.448 54.8614 11.232V13.668C55.1734 13.788 55.3934 13.924 55.5214 14.076L55.4014 15H52.6414L52.5214 14.076C52.6334 13.924 52.8534 13.788 53.1814 13.668V11.292C53.1814 10.86 53.1094 10.572 52.9654 10.428C52.8294 10.276 52.5774 10.2 52.2094 10.2C51.8414 10.2 51.4854 10.328 51.1414 10.584V13.668C51.4534 13.788 51.6734 13.924 51.8014 14.076L51.6814 15H48.9214L48.8014 14.076C48.9134 13.924 49.1334 13.788 49.4614 13.668V7.812C49.1814 7.716 48.9614 7.58 48.8014 7.404L48.9214 6.48ZM56.8655 9C57.3135 8.896 57.7295 8.844 58.1135 8.844C58.4975 8.844 58.8215 8.856 59.0855 8.88V13.668C59.3975 13.788 59.6175 13.924 59.7455 14.076L59.6255 15H56.8655L56.7455 14.076C56.8575 13.924 57.0775 13.788 57.4055 13.668V10.332C57.1255 10.236 56.9055 10.1 56.7455 9.924L56.8655 9ZM58.2215 8.172C57.5575 8.172 57.2255 7.872 57.2255 7.272C57.2255 6.664 57.5575 6.36 58.2215 6.36C58.8935 6.36 59.2295 6.664 59.2295 7.272C59.2295 7.872 58.8935 8.172 58.2215 8.172ZM64.6054 10.476C63.9974 10.476 63.5774 10.592 63.3454 10.824V13.572C63.9934 13.692 64.4374 13.86 64.6774 14.076L64.5574 15H61.1254L61.0054 14.076C61.1174 13.924 61.3374 13.788 61.6654 13.668V10.332C61.3854 10.236 61.1654 10.1 61.0054 9.924L61.1254 9C61.5654 8.904 61.9614 8.856 62.3134 8.856C62.6654 8.856 62.9574 8.864 63.1894 8.88V9.636C63.3734 9.42 63.6094 9.244 63.8974 9.108C64.1854 8.964 64.4454 8.892 64.6774 8.892C64.9174 8.892 65.0814 8.912 65.1694 8.952L65.1334 10.512C64.9734 10.488 64.7974 10.476 64.6054 10.476ZM34.7704 21.66L37.1584 28.584C37.4944 28.704 37.7304 28.844 37.8664 29.004L37.7464 30H34.9384L34.8184 29.004C34.9144 28.876 35.1064 28.756 35.3944 28.644L35.0704 27.636H32.6704L32.3704 28.608C32.6504 28.72 32.8584 28.852 32.9944 29.004L32.8744 30H30.1384L30.0184 29.004C30.1624 28.82 30.4304 28.668 30.8224 28.548L33.1264 21.66H34.7704ZM33.7744 23.34C33.7744 23.828 33.6744 24.396 33.4744 25.044L33.0064 26.532H34.7224L34.2664 25.068C34.0824 24.508 33.9784 24 33.9544 23.544L33.9424 23.34H33.7744ZM38.8928 21.48C39.3408 21.376 39.7568 21.324 40.1408 21.324C40.5248 21.324 40.8488 21.336 41.1128 21.36V24.36C41.3048 24.232 41.5608 24.124 41.8808 24.036C42.2008 23.948 42.4848 23.904 42.7328 23.904C43.5248 23.904 44.0728 24.096 44.3768 24.48C44.6808 24.864 44.8328 25.448 44.8328 26.232V28.668C45.1448 28.788 45.3648 28.924 45.4928 29.076L45.3728 30H42.6128L42.4928 29.076C42.6048 28.924 42.8248 28.788 43.1528 28.668V26.292C43.1528 25.86 43.0808 25.572 42.9368 25.428C42.8008 25.276 42.5488 25.2 42.1808 25.2C41.8128 25.2 41.4568 25.328 41.1128 25.584V28.668C41.4248 28.788 41.6448 28.924 41.7728 29.076L41.6528 30H38.8928L38.7728 29.076C38.8848 28.924 39.1048 28.788 39.4328 28.668V22.812C39.1528 22.716 38.9328 22.58 38.7728 22.404L38.8928 21.48ZM46.8129 24C47.2529 23.904 47.6489 23.856 48.0009 23.856C48.3529 23.856 48.6449 23.864 48.8769 23.88V24.48C49.0689 24.32 49.3089 24.184 49.5969 24.072C49.8849 23.96 50.1449 23.904 50.3769 23.904C51.2889 23.904 51.8969 24.132 52.2009 24.588C52.4009 24.396 52.6649 24.236 52.9929 24.108C53.3209 23.972 53.6249 23.904 53.9049 23.904C54.7849 23.904 55.3769 24.104 55.6809 24.504C55.9849 24.896 56.1369 25.636 56.1369 26.724V28.668C56.4489 28.788 56.6689 28.924 56.7969 29.076L56.6769 30H53.9169L53.7969 29.076C53.9089 28.924 54.1289 28.788 54.4569 28.668V26.292C54.4569 25.852 54.3969 25.56 54.2769 25.416C54.1569 25.272 53.9169 25.2 53.5569 25.2C53.2049 25.2 52.8689 25.332 52.5489 25.596C52.5889 25.868 52.6089 26.244 52.6089 26.724V28.668C52.9209 28.788 53.1409 28.924 53.2689 29.076L53.1489 30H50.3889L50.2689 29.076C50.3809 28.924 50.6009 28.788 50.9289 28.668V26.292C50.9289 25.852 50.8689 25.56 50.7489 25.416C50.6289 25.272 50.3929 25.2 50.0409 25.2C49.6889 25.2 49.3529 25.328 49.0329 25.584V28.668C49.3449 28.788 49.5649 28.924 49.6929 29.076L49.5729 30H46.8129L46.6929 29.076C46.8049 28.924 47.0249 28.788 47.3529 28.668V25.332C47.0729 25.236 46.8529 25.1 46.6929 24.924L46.8129 24ZM60.8646 30.096C59.9046 30.096 59.1806 29.84 58.6926 29.328C58.2126 28.816 57.9726 28.072 57.9726 27.096C57.9726 26.504 58.0566 25.996 58.2246 25.572C58.3926 25.14 58.6206 24.808 58.9086 24.576C59.4686 24.128 60.1206 23.904 60.8646 23.904C61.6086 23.904 62.1766 24.096 62.5686 24.48C62.9686 24.856 63.1686 25.536 63.1686 26.52C63.1686 27.096 62.8846 27.384 62.3166 27.384H59.7126C59.7446 27.888 59.8726 28.244 60.0966 28.452C60.3286 28.66 60.6926 28.764 61.1886 28.764C61.4606 28.764 61.7206 28.732 61.9686 28.668C62.2166 28.604 62.3966 28.54 62.5086 28.476L62.6766 28.38L63.0366 29.34C62.9886 29.396 62.9166 29.468 62.8206 29.556C62.7326 29.636 62.5006 29.748 62.1246 29.892C61.7566 30.028 61.3366 30.096 60.8646 30.096ZM61.6206 26.316C61.6366 26.204 61.6446 26.068 61.6446 25.908C61.6446 25.748 61.5806 25.58 61.4526 25.404C61.3246 25.22 61.1006 25.128 60.7806 25.128C60.4686 25.128 60.2286 25.224 60.0606 25.416C59.8926 25.608 59.7806 25.932 59.7246 26.388L61.6206 26.316ZM67.6854 21.48C68.1414 21.376 68.5774 21.324 68.9934 21.324C69.4094 21.324 69.7654 21.336 70.0614 21.36V28.56C70.3014 28.6 70.5214 28.668 70.7214 28.764V29.712C70.2414 29.968 69.6334 30.096 68.8974 30.096C68.8174 30.056 68.7374 29.984 68.6574 29.88C68.5854 29.776 68.5454 29.676 68.5374 29.58C68.3614 29.724 68.1334 29.848 67.8534 29.952C67.5734 30.048 67.2974 30.096 67.0254 30.096C66.1614 30.096 65.5334 29.864 65.1414 29.4C64.7574 28.928 64.5654 28.16 64.5654 27.096C64.5654 25.888 64.8614 25.04 65.4534 24.552C65.9734 24.12 66.6134 23.904 67.3734 23.904C67.7094 23.904 68.0454 23.944 68.3814 24.024V22.836C68.0134 22.732 67.7414 22.588 67.5654 22.404L67.6854 21.48ZM67.2774 28.872C67.7334 28.872 68.1014 28.736 68.3814 28.464V25.248C68.0534 25.168 67.7054 25.128 67.3374 25.128C66.9694 25.128 66.7014 25.292 66.5334 25.62C66.3734 25.94 66.2934 26.424 66.2934 27.072C66.2934 27.712 66.3734 28.172 66.5334 28.452C66.6934 28.732 66.9414 28.872 67.2774 28.872Z" fill="#FF8A00"/>
<path d="M20 3V1.81868L19.1519 2.64105L2.65193 18.641L2.24156 19.039L2.69056 19.3927L19.1906 32.3927L20 33.0305V32V29.5V29.2555L19.807 29.1053L6.76265 18.9597L19.8468 6.36016L20 6.21265V6V5V3Z" fill="white" stroke="black"/>
<path d="M80.5 32V33.1813L81.3481 32.359L97.8481 16.359L98.2584 15.961L97.8094 15.6073L81.3094 2.60725L80.5 1.96952V3V5.5V5.74454L80.693 5.89468L93.7374 16.0403L80.6532 28.6398L80.5 28.7873V29V30V32Z" fill="white" stroke="black"/>
</svg>
