<svg width="1443" height="301" viewBox="0 0 1443 301" fill="none" xmlns="http://www.w3.org/2000/svg">
<path d="M1 209.167V300.167H204H344.5H461H625H1441L1434.5 296.167L1432 295.167L1429.5 292.667C1428 291.667 1424.8 289.467 1424 288.667C1423 287.667 1419.5 281.167 1418.5 279.667C1417.5 278.167 1415.5 275.667 1412.5 271.167C1410.1 267.567 1407.83 265.333 1407 264.667L1402 257.667C1401.33 255.333 1395.8 246.267 1379 228.667C1358 206.667 1330 196.167 1323.5 196.167C1317 196.167 1208 162.667 1195 162.667C1182 162.667 1147 159.667 1119.5 162.667C1092.73 165.587 1076.38 172.299 1057.54 180.033L1056 180.667C1036.5 188.667 1029 188.167 1021 196.167C1014.6 202.567 985.333 215.167 971.5 220.667L900.5 250.667C889.667 251.5 866.2 252.667 859 250.667C851.8 248.667 837.667 242.833 831.5 240.167L791.5 220.667C762.5 209.833 703.2 188.167 698 188.167C691.5 188.167 630.5 157.167 620 149.667C611.6 143.667 587.167 127.833 576 120.667L548.5 106.667L504.5 83.1667C487.167 80.6667 444.7 75.6667 413.5 75.6667C374.5 75.6667 382.5 74.1667 367 75.6667C351.5 77.1667 320 80.6667 307 83.1667C294 85.6667 269.5 93.6667 255.5 96.1667C241.5 98.6667 210 105.167 201 106.667C192 108.167 143.5 123.667 133.5 128.667C123.5 133.667 108.5 140.167 90.5 149.667C76.1 157.267 61.8333 165.5 56.5 168.667L25.5 188.167L1 209.167Z" fill="#1A1D24" stroke="#1A1D24"/>
</svg>
